<svg width="25" height="24" viewBox="0 0 25 24" fill="none" xmlns="http://www.w3.org/2000/svg">
<g id="call">
<path id="Vector" d="M15.5171 4C15.5171 5.2 15.3171 6.5 14.9171 7.6C14.9171 7.7 14.9171 7.8 14.9171 7.9C14.9171 8.2 15.0171 8.4 15.2171 8.6L17.4171 10.8C15.9171 13.6 13.6171 16 10.8171 17.4L8.61709 15.2C8.31709 14.9 7.91709 14.8 7.61709 15C6.51709 15.3 5.21709 15.5 4.01709 15.5C3.51709 15.5 3.01709 16 3.01709 16.5L3.01709 20C3.01709 20.5 3.51709 21 4.01709 21C13.4171 21 21.0171 13.4 21.0171 4C21.0171 3.5 20.5171 3 20.0171 3H16.5171C16.0171 3 15.5171 3.5 15.5171 4ZM5.28602 18.9765C5.14109 18.9907 5.01709 18.8757 5.01709 18.73V17.9475C5.01709 17.6927 5.20881 17.4795 5.46094 17.443C6.10921 17.3489 6.74888 17.2112 7.34226 17.0676C7.51296 17.0263 7.69308 17.076 7.81727 17.2002L8.53106 17.914C8.66247 18.0454 8.60956 18.2688 8.43203 18.3238C7.42549 18.6353 6.3581 18.8716 5.28602 18.9765ZM18.7471 5C18.8927 5 19.0078 5.124 18.9936 5.26893C18.8887 6.34101 18.6524 7.4084 18.3409 8.41494C18.2859 8.59247 18.0625 8.64538 17.9311 8.51397L17.2173 7.80018C17.0931 7.67599 17.0435 7.4959 17.0846 7.32513C17.2232 6.74875 17.3506 6.1287 17.3978 5.49951C17.4184 5.22414 17.6409 5 17.9171 5H18.7471Z" fill="#F59115"/>
</g>
</svg>
