<svg width="25" height="24" viewBox="0 0 25 24" fill="none" xmlns="http://www.w3.org/2000/svg">
<g id="instagram">
<g id="Vector">
<path d="M12.018 2C9.30217 2 8.96133 2.01186 7.89465 2.06037C6.83006 2.10908 6.10338 2.27751 5.46754 2.52463C4.80983 2.77985 4.2519 3.12126 3.69607 3.67689C3.13982 4.23233 2.79814 4.78983 2.54189 5.44685C2.29396 6.08243 2.12521 6.80877 2.0773 7.87216C2.02959 8.93804 2.01709 9.27884 2.01709 11.9927C2.01709 14.7065 2.02918 15.0461 2.0775 16.1119C2.12647 17.1758 2.29501 17.9019 2.54209 18.5373C2.79772 19.1945 3.13939 19.752 3.69544 20.3074C4.25108 20.8633 4.80899 21.2055 5.46629 21.4607C6.10254 21.7079 6.82944 21.8763 7.89381 21.925C8.9605 21.9735 9.30112 21.9854 12.0168 21.9854C14.7328 21.9854 15.0726 21.9735 16.1393 21.925C17.2039 21.8763 17.9314 21.7079 18.5677 21.4607C19.2252 21.2055 19.7823 20.8633 20.3379 20.3074C20.8942 19.752 21.2358 19.1945 21.4921 18.5375C21.7379 17.9019 21.9067 17.1756 21.9567 16.1122C22.0046 15.0463 22.0171 14.7065 22.0171 11.9927C22.0171 9.27883 22.0046 8.93826 21.9567 7.87236C21.9067 6.80856 21.7379 6.08243 21.4921 5.44706C21.2358 4.78983 20.8942 4.23232 20.3379 3.67689C19.7816 3.12105 19.2254 2.77963 18.5671 2.52462C17.9295 2.27751 17.2025 2.10908 16.1379 2.06037C15.0712 2.01186 14.7316 2 12.0149 2H12.018ZM11.1209 3.80077C11.3872 3.80035 11.6843 3.80077 12.018 3.80077C14.6881 3.80077 15.0045 3.81034 16.0589 3.85822C17.0339 3.90278 17.5631 4.06557 17.9156 4.20234C18.3823 4.38346 18.715 4.59997 19.0648 4.94971C19.4148 5.29946 19.6314 5.63255 19.8131 6.09887C19.95 6.45069 20.1131 6.97948 20.1575 7.95377C20.2054 9.00716 20.2158 9.32359 20.2158 11.9904C20.2158 14.6572 20.2054 14.9736 20.1575 16.027C20.1129 17.0013 19.95 17.5301 19.8131 17.8819C19.6319 18.3482 19.4148 18.6803 19.0648 19.0298C18.7148 19.3796 18.3825 19.5961 17.9156 19.7772C17.5635 19.9146 17.0339 20.077 16.0589 20.1215C15.0047 20.1694 14.6881 20.1798 12.018 20.1798C9.34779 20.1798 9.03133 20.1694 7.97715 20.1215C7.00215 20.0766 6.47298 19.9138 6.12026 19.777C5.65359 19.5959 5.32024 19.3794 4.97025 19.0296C4.62024 18.6799 4.40358 18.3476 4.2219 17.8811C4.08502 17.5292 3.9219 17.0005 3.87753 16.0262C3.82961 14.9728 3.82002 14.6564 3.82002 11.9879C3.82002 9.31944 3.82961 9.00466 3.87753 7.95127C3.92211 6.97697 4.08502 6.4482 4.2219 6.09596C4.40315 5.62963 4.62024 5.29654 4.97025 4.9468C5.32024 4.59705 5.65359 4.38055 6.12026 4.19902C6.47276 4.06161 7.00215 3.89924 7.97715 3.85447C8.89966 3.81283 9.25716 3.80035 11.1209 3.79826L11.1209 3.80077ZM17.356 5.45996C16.6935 5.45996 16.156 5.99645 16.156 6.65867C16.156 7.32069 16.6935 7.8578 17.356 7.8578C18.0185 7.8578 18.556 7.32069 18.556 6.65867C18.556 5.99665 18.0185 5.45996 17.356 5.45996ZM12.018 6.86102C9.18195 6.86102 6.88256 9.15871 6.88256 11.9927C6.88256 14.8266 9.18195 17.1233 12.018 17.1233C14.8541 17.1233 17.1527 14.8266 17.1527 11.9927C17.1527 9.15871 14.8541 6.86102 12.018 6.86102ZM12.018 8.66179C13.8589 8.66179 15.3514 10.153 15.3514 11.9927C15.3514 13.8322 13.8589 15.3236 12.018 15.3236C10.177 15.3236 8.68466 13.8322 8.68466 11.9927C8.68466 10.153 10.177 8.66179 12.018 8.66179Z" fill="#EDEDED"/>
<path d="M12.018 2C9.30217 2 8.96133 2.01186 7.89465 2.06037C6.83006 2.10908 6.10338 2.27751 5.46754 2.52463C4.80983 2.77985 4.2519 3.12126 3.69607 3.67689C3.13982 4.23233 2.79814 4.78983 2.54189 5.44685C2.29396 6.08243 2.12521 6.80877 2.0773 7.87216C2.02959 8.93804 2.01709 9.27884 2.01709 11.9927C2.01709 14.7065 2.02918 15.0461 2.0775 16.1119C2.12647 17.1758 2.29501 17.9019 2.54209 18.5373C2.79772 19.1945 3.13939 19.752 3.69544 20.3074C4.25108 20.8633 4.80899 21.2055 5.46629 21.4607C6.10254 21.7079 6.82944 21.8763 7.89381 21.925C8.9605 21.9735 9.30112 21.9854 12.0168 21.9854C14.7328 21.9854 15.0726 21.9735 16.1393 21.925C17.2039 21.8763 17.9314 21.7079 18.5677 21.4607C19.2252 21.2055 19.7823 20.8633 20.3379 20.3074C20.8942 19.752 21.2358 19.1945 21.4921 18.5375C21.7379 17.9019 21.9067 17.1756 21.9567 16.1122C22.0046 15.0463 22.0171 14.7065 22.0171 11.9927C22.0171 9.27883 22.0046 8.93826 21.9567 7.87236C21.9067 6.80856 21.7379 6.08243 21.4921 5.44706C21.2358 4.78983 20.8942 4.23232 20.3379 3.67689C19.7816 3.12105 19.2254 2.77963 18.5671 2.52462C17.9295 2.27751 17.2025 2.10908 16.1379 2.06037C15.0712 2.01186 14.7316 2 12.0149 2H12.018ZM11.1209 3.80077C11.3872 3.80035 11.6843 3.80077 12.018 3.80077C14.6881 3.80077 15.0045 3.81034 16.0589 3.85822C17.0339 3.90278 17.5631 4.06557 17.9156 4.20234C18.3823 4.38346 18.715 4.59997 19.0648 4.94971C19.4148 5.29946 19.6314 5.63255 19.8131 6.09887C19.95 6.45069 20.1131 6.97948 20.1575 7.95377C20.2054 9.00716 20.2158 9.32359 20.2158 11.9904C20.2158 14.6572 20.2054 14.9736 20.1575 16.027C20.1129 17.0013 19.95 17.5301 19.8131 17.8819C19.6319 18.3482 19.4148 18.6803 19.0648 19.0298C18.7148 19.3796 18.3825 19.5961 17.9156 19.7772C17.5635 19.9146 17.0339 20.077 16.0589 20.1215C15.0047 20.1694 14.6881 20.1798 12.018 20.1798C9.34779 20.1798 9.03133 20.1694 7.97715 20.1215C7.00215 20.0766 6.47298 19.9138 6.12026 19.777C5.65359 19.5959 5.32024 19.3794 4.97025 19.0296C4.62024 18.6799 4.40358 18.3476 4.2219 17.8811C4.08502 17.5292 3.9219 17.0005 3.87753 16.0262C3.82961 14.9728 3.82002 14.6564 3.82002 11.9879C3.82002 9.31944 3.82961 9.00466 3.87753 7.95127C3.92211 6.97697 4.08502 6.4482 4.2219 6.09596C4.40315 5.62963 4.62024 5.29654 4.97025 4.9468C5.32024 4.59705 5.65359 4.38055 6.12026 4.19902C6.47276 4.06161 7.00215 3.89924 7.97715 3.85447C8.89966 3.81283 9.25716 3.80035 11.1209 3.79826L11.1209 3.80077ZM17.356 5.45996C16.6935 5.45996 16.156 5.99645 16.156 6.65867C16.156 7.32069 16.6935 7.8578 17.356 7.8578C18.0185 7.8578 18.556 7.32069 18.556 6.65867C18.556 5.99665 18.0185 5.45996 17.356 5.45996ZM12.018 6.86102C9.18195 6.86102 6.88256 9.15871 6.88256 11.9927C6.88256 14.8266 9.18195 17.1233 12.018 17.1233C14.8541 17.1233 17.1527 14.8266 17.1527 11.9927C17.1527 9.15871 14.8541 6.86102 12.018 6.86102ZM12.018 8.66179C13.8589 8.66179 15.3514 10.153 15.3514 11.9927C15.3514 13.8322 13.8589 15.3236 12.018 15.3236C10.177 15.3236 8.68466 13.8322 8.68466 11.9927C8.68466 10.153 10.177 8.66179 12.018 8.66179Z" fill="#EDEDED"/>
<path d="M12.018 2C9.30217 2 8.96133 2.01186 7.89465 2.06037C6.83006 2.10908 6.10338 2.27751 5.46754 2.52463C4.80983 2.77985 4.2519 3.12126 3.69607 3.67689C3.13982 4.23233 2.79814 4.78983 2.54189 5.44685C2.29396 6.08243 2.12521 6.80877 2.0773 7.87216C2.02959 8.93804 2.01709 9.27884 2.01709 11.9927C2.01709 14.7065 2.02918 15.0461 2.0775 16.1119C2.12647 17.1758 2.29501 17.9019 2.54209 18.5373C2.79772 19.1945 3.13939 19.752 3.69544 20.3074C4.25108 20.8633 4.80899 21.2055 5.46629 21.4607C6.10254 21.7079 6.82944 21.8763 7.89381 21.925C8.9605 21.9735 9.30112 21.9854 12.0168 21.9854C14.7328 21.9854 15.0726 21.9735 16.1393 21.925C17.2039 21.8763 17.9314 21.7079 18.5677 21.4607C19.2252 21.2055 19.7823 20.8633 20.3379 20.3074C20.8942 19.752 21.2358 19.1945 21.4921 18.5375C21.7379 17.9019 21.9067 17.1756 21.9567 16.1122C22.0046 15.0463 22.0171 14.7065 22.0171 11.9927C22.0171 9.27883 22.0046 8.93826 21.9567 7.87236C21.9067 6.80856 21.7379 6.08243 21.4921 5.44706C21.2358 4.78983 20.8942 4.23232 20.3379 3.67689C19.7816 3.12105 19.2254 2.77963 18.5671 2.52462C17.9295 2.27751 17.2025 2.10908 16.1379 2.06037C15.0712 2.01186 14.7316 2 12.0149 2H12.018ZM11.1209 3.80077C11.3872 3.80035 11.6843 3.80077 12.018 3.80077C14.6881 3.80077 15.0045 3.81034 16.0589 3.85822C17.0339 3.90278 17.5631 4.06557 17.9156 4.20234C18.3823 4.38346 18.715 4.59997 19.0648 4.94971C19.4148 5.29946 19.6314 5.63255 19.8131 6.09887C19.95 6.45069 20.1131 6.97948 20.1575 7.95377C20.2054 9.00716 20.2158 9.32359 20.2158 11.9904C20.2158 14.6572 20.2054 14.9736 20.1575 16.027C20.1129 17.0013 19.95 17.5301 19.8131 17.8819C19.6319 18.3482 19.4148 18.6803 19.0648 19.0298C18.7148 19.3796 18.3825 19.5961 17.9156 19.7772C17.5635 19.9146 17.0339 20.077 16.0589 20.1215C15.0047 20.1694 14.6881 20.1798 12.018 20.1798C9.34779 20.1798 9.03133 20.1694 7.97715 20.1215C7.00215 20.0766 6.47298 19.9138 6.12026 19.777C5.65359 19.5959 5.32024 19.3794 4.97025 19.0296C4.62024 18.6799 4.40358 18.3476 4.2219 17.8811C4.08502 17.5292 3.9219 17.0005 3.87753 16.0262C3.82961 14.9728 3.82002 14.6564 3.82002 11.9879C3.82002 9.31944 3.82961 9.00466 3.87753 7.95127C3.92211 6.97697 4.08502 6.4482 4.2219 6.09596C4.40315 5.62963 4.62024 5.29654 4.97025 4.9468C5.32024 4.59705 5.65359 4.38055 6.12026 4.19902C6.47276 4.06161 7.00215 3.89924 7.97715 3.85447C8.89966 3.81283 9.25716 3.80035 11.1209 3.79826L11.1209 3.80077ZM17.356 5.45996C16.6935 5.45996 16.156 5.99645 16.156 6.65867C16.156 7.32069 16.6935 7.8578 17.356 7.8578C18.0185 7.8578 18.556 7.32069 18.556 6.65867C18.556 5.99665 18.0185 5.45996 17.356 5.45996ZM12.018 6.86102C9.18195 6.86102 6.88256 9.15871 6.88256 11.9927C6.88256 14.8266 9.18195 17.1233 12.018 17.1233C14.8541 17.1233 17.1527 14.8266 17.1527 11.9927C17.1527 9.15871 14.8541 6.86102 12.018 6.86102ZM12.018 8.66179C13.8589 8.66179 15.3514 10.153 15.3514 11.9927C15.3514 13.8322 13.8589 15.3236 12.018 15.3236C10.177 15.3236 8.68466 13.8322 8.68466 11.9927C8.68466 10.153 10.177 8.66179 12.018 8.66179Z" fill="#EDEDED"/>
<path d="M12.018 2C9.30217 2 8.96133 2.01186 7.89465 2.06037C6.83006 2.10908 6.10338 2.27751 5.46754 2.52463C4.80983 2.77985 4.2519 3.12126 3.69607 3.67689C3.13982 4.23233 2.79814 4.78983 2.54189 5.44685C2.29396 6.08243 2.12521 6.80877 2.0773 7.87216C2.02959 8.93804 2.01709 9.27884 2.01709 11.9927C2.01709 14.7065 2.02918 15.0461 2.0775 16.1119C2.12647 17.1758 2.29501 17.9019 2.54209 18.5373C2.79772 19.1945 3.13939 19.752 3.69544 20.3074C4.25108 20.8633 4.80899 21.2055 5.46629 21.4607C6.10254 21.7079 6.82944 21.8763 7.89381 21.925C8.9605 21.9735 9.30112 21.9854 12.0168 21.9854C14.7328 21.9854 15.0726 21.9735 16.1393 21.925C17.2039 21.8763 17.9314 21.7079 18.5677 21.4607C19.2252 21.2055 19.7823 20.8633 20.3379 20.3074C20.8942 19.752 21.2358 19.1945 21.4921 18.5375C21.7379 17.9019 21.9067 17.1756 21.9567 16.1122C22.0046 15.0463 22.0171 14.7065 22.0171 11.9927C22.0171 9.27883 22.0046 8.93826 21.9567 7.87236C21.9067 6.80856 21.7379 6.08243 21.4921 5.44706C21.2358 4.78983 20.8942 4.23232 20.3379 3.67689C19.7816 3.12105 19.2254 2.77963 18.5671 2.52462C17.9295 2.27751 17.2025 2.10908 16.1379 2.06037C15.0712 2.01186 14.7316 2 12.0149 2H12.018ZM11.1209 3.80077C11.3872 3.80035 11.6843 3.80077 12.018 3.80077C14.6881 3.80077 15.0045 3.81034 16.0589 3.85822C17.0339 3.90278 17.5631 4.06557 17.9156 4.20234C18.3823 4.38346 18.715 4.59997 19.0648 4.94971C19.4148 5.29946 19.6314 5.63255 19.8131 6.09887C19.95 6.45069 20.1131 6.97948 20.1575 7.95377C20.2054 9.00716 20.2158 9.32359 20.2158 11.9904C20.2158 14.6572 20.2054 14.9736 20.1575 16.027C20.1129 17.0013 19.95 17.5301 19.8131 17.8819C19.6319 18.3482 19.4148 18.6803 19.0648 19.0298C18.7148 19.3796 18.3825 19.5961 17.9156 19.7772C17.5635 19.9146 17.0339 20.077 16.0589 20.1215C15.0047 20.1694 14.6881 20.1798 12.018 20.1798C9.34779 20.1798 9.03133 20.1694 7.97715 20.1215C7.00215 20.0766 6.47298 19.9138 6.12026 19.777C5.65359 19.5959 5.32024 19.3794 4.97025 19.0296C4.62024 18.6799 4.40358 18.3476 4.2219 17.8811C4.08502 17.5292 3.9219 17.0005 3.87753 16.0262C3.82961 14.9728 3.82002 14.6564 3.82002 11.9879C3.82002 9.31944 3.82961 9.00466 3.87753 7.95127C3.92211 6.97697 4.08502 6.4482 4.2219 6.09596C4.40315 5.62963 4.62024 5.29654 4.97025 4.9468C5.32024 4.59705 5.65359 4.38055 6.12026 4.19902C6.47276 4.06161 7.00215 3.89924 7.97715 3.85447C8.89966 3.81283 9.25716 3.80035 11.1209 3.79826L11.1209 3.80077ZM17.356 5.45996C16.6935 5.45996 16.156 5.99645 16.156 6.65867C16.156 7.32069 16.6935 7.8578 17.356 7.8578C18.0185 7.8578 18.556 7.32069 18.556 6.65867C18.556 5.99665 18.0185 5.45996 17.356 5.45996ZM12.018 6.86102C9.18195 6.86102 6.88256 9.15871 6.88256 11.9927C6.88256 14.8266 9.18195 17.1233 12.018 17.1233C14.8541 17.1233 17.1527 14.8266 17.1527 11.9927C17.1527 9.15871 14.8541 6.86102 12.018 6.86102ZM12.018 8.66179C13.8589 8.66179 15.3514 10.153 15.3514 11.9927C15.3514 13.8322 13.8589 15.3236 12.018 15.3236C10.177 15.3236 8.68466 13.8322 8.68466 11.9927C8.68466 10.153 10.177 8.66179 12.018 8.66179Z" fill="#EDEDED"/>
</g>
</g>
</svg>
