<svg width="25" height="24" viewBox="0 0 25 24" fill="none" xmlns="http://www.w3.org/2000/svg">
<g id="location">
<path id="Vector" d="M12.0171 12C12.5671 12 13.0381 11.804 13.4301 11.412C13.8214 11.0207 14.0171 10.55 14.0171 10C14.0171 9.45 13.8214 8.979 13.4301 8.587C13.0381 8.19567 12.5671 8 12.0171 8C11.4671 8 10.9964 8.19567 10.6051 8.587C10.2131 8.979 10.0171 9.45 10.0171 10C10.0171 10.55 10.2131 11.0207 10.6051 11.412C10.9964 11.804 11.4671 12 12.0171 12ZM12.0171 19.35C14.0504 17.4833 15.5588 15.7873 16.5421 14.262C17.5254 12.7373 18.0171 11.3833 18.0171 10.2C18.0171 8.38333 17.4378 6.89567 16.2791 5.737C15.1211 4.579 13.7004 4 12.0171 4C10.3338 4 8.91276 4.579 7.75409 5.737C6.59609 6.89567 6.01709 8.38333 6.01709 10.2C6.01709 11.3833 6.50876 12.7373 7.49209 14.262C8.47542 15.7873 9.98376 17.4833 12.0171 19.35ZM12.0171 21.625C11.8838 21.625 11.7504 21.6 11.6171 21.55C11.4838 21.5 11.3671 21.4333 11.2671 21.35C8.83376 19.2 7.01709 17.2043 5.81709 15.363C4.61709 13.521 4.01709 11.8 4.01709 10.2C4.01709 7.7 4.82142 5.70833 6.43009 4.225C8.03809 2.74167 9.90042 2 12.0171 2C14.1338 2 15.9961 2.74167 17.6041 4.225C19.2128 5.70833 20.0171 7.7 20.0171 10.2C20.0171 11.8 19.4171 13.521 18.2171 15.363C17.0171 17.2043 15.2004 19.2 12.7671 21.35C12.6671 21.4333 12.5504 21.5 12.4171 21.55C12.2838 21.6 12.1504 21.625 12.0171 21.625Z" fill="#F59115"/>
</g>
</svg>
