<svg width="25" height="24" viewBox="0 0 25 24" fill="none" xmlns="http://www.w3.org/2000/svg">
<g id="navigate_previous">
<path id="Vector" d="M12.3171 17.2998L7.71708 12.6998C7.61708 12.5998 7.54641 12.4915 7.50508 12.3748C7.46308 12.2581 7.44208 12.1331 7.44208 11.9998C7.44208 11.8665 7.46308 11.7415 7.50508 11.6248C7.54641 11.5081 7.61708 11.3998 7.71708 11.2998L12.3171 6.6998C12.5004 6.51647 12.7337 6.4248 13.0171 6.4248C13.3004 6.4248 13.5337 6.51647 13.7171 6.6998C13.9004 6.88314 13.9921 7.11647 13.9921 7.3998C13.9921 7.68314 13.9004 7.91647 13.7171 8.0998L9.81708 11.9998L13.7171 15.8998C13.9004 16.0831 13.9921 16.3165 13.9921 16.5998C13.9921 16.8831 13.9004 17.1165 13.7171 17.2998C13.5337 17.4831 13.3004 17.5748 13.0171 17.5748C12.7337 17.5748 12.5004 17.4831 12.3171 17.2998Z" fill="#404040"/>
</g>
</svg>
