<svg width="25" height="24" viewBox="0 0 25 24" fill="none" xmlns="http://www.w3.org/2000/svg">
<g id="whatsapp">
<g id="whatsapp_logo">
<path fill-rule="evenodd" clip-rule="evenodd" d="M3.42346 16.8646L2.01697 22L7.27232 20.6219C8.7204 21.4116 10.3506 21.8278 12.0096 21.8284H12.0139C17.4776 21.8284 21.9252 17.3821 21.9277 11.918C21.9286 9.26974 20.8981 6.77984 19.0267 4.90656C17.1547 3.03328 14.6657 2.00129 12.0139 2C6.5493 2 2.10237 6.44562 2.10015 11.91C2.09959 13.6567 2.55598 15.3617 3.42346 16.8646ZM3.77402 11.9106C3.77569 7.369 7.47195 3.67408 12.0171 3.67408C14.2181 3.67501 16.2867 4.53281 17.8425 6.08969C19.3982 7.64658 20.2544 9.7163 20.2536 11.9173C20.2518 16.4593 16.5555 20.1546 12.0139 20.1546H12.0108C10.5319 20.1538 9.08173 19.7569 7.81691 19.0062L7.51577 18.8278L4.39712 19.6455L5.22974 16.606L5.03366 16.2944C4.20889 14.9828 3.77335 13.4669 3.77402 11.9106Z" fill="#EDEDED"/>
<path fill-rule="evenodd" clip-rule="evenodd" d="M9.53627 7.76689C9.35059 7.35451 9.15526 7.34615 8.97887 7.33891C8.83441 7.33278 8.66916 7.33315 8.5041 7.33315C8.33885 7.33315 8.07055 7.39517 7.84365 7.64305C7.61657 7.89092 6.97655 8.4901 6.97655 9.70887C6.97655 10.9276 7.86426 12.1052 7.98792 12.2706C8.11177 12.4359 9.70152 15.0168 12.2195 16.0096C14.3118 16.8347 14.7376 16.6706 15.1919 16.6294C15.6461 16.5881 16.6575 16.0302 16.8637 15.4518C17.0702 14.8734 17.0702 14.3779 17.0084 14.2742C16.9464 14.1708 16.7813 14.109 16.5334 13.9852C16.2857 13.8613 15.0679 13.2619 14.8408 13.1793C14.6137 13.0967 14.4487 13.0555 14.2834 13.3034C14.1184 13.5512 13.644 14.109 13.4993 14.2742C13.3549 14.4397 13.2104 14.4603 12.9625 14.3365C12.7148 14.2122 11.917 13.951 10.9706 13.1071C10.2342 12.4505 9.73717 11.6397 9.59253 11.3918C9.44807 11.144 9.57711 11.0099 9.70133 10.8864C9.81255 10.7754 9.94902 10.5971 10.0731 10.4525C10.1965 10.3079 10.2379 10.2046 10.3204 10.0396C10.403 9.87412 10.3618 9.72948 10.2998 9.60563C10.2379 9.48179 9.75648 8.2567 9.53627 7.76689Z" fill="#EDEDED"/>
</g>
</g>
</svg>
