<svg width="25" height="24" viewBox="0 0 25 24" fill="none" xmlns="http://www.w3.org/2000/svg">
<g id="youtube">
<path id="Vector" d="M21.5992 7.11729C21.3692 6.25121 20.6914 5.5691 19.831 5.33762C18.2713 4.91699 12.0171 4.91699 12.0171 4.91699C12.0171 4.91699 5.76295 4.91699 4.20322 5.33762C3.34274 5.56914 2.66503 6.25121 2.43501 7.11729C2.01709 8.68713 2.01709 11.9624 2.01709 11.9624C2.01709 11.9624 2.01709 15.2378 2.43501 16.8076C2.66503 17.6737 3.34274 18.3274 4.20322 18.5588C5.76295 18.9795 12.0171 18.9795 12.0171 18.9795C12.0171 18.9795 18.2712 18.9795 19.831 18.5588C20.6914 18.3274 21.3692 17.6737 21.5992 16.8076C22.0171 15.2378 22.0171 11.9624 22.0171 11.9624C22.0171 11.9624 22.0171 8.68713 21.5992 7.11729ZM9.97162 14.9362V8.9887L15.1989 11.9625L9.97162 14.9362Z" fill="#EDEDED"/>
</g>
</svg>
