<svg width="49" height="48" viewBox="0 0 49 48" fill="none" xmlns="http://www.w3.org/2000/svg">
<g id="arrow_upward_alt">
<path id="Vector" d="M22.0171 17.5998L16.2171 23.3998C15.8504 23.7665 15.3838 23.9498 14.8171 23.9498C14.2504 23.9498 13.7838 23.7665 13.4171 23.3998C13.0504 23.0331 12.8671 22.5665 12.8671 21.9998C12.8671 21.4331 13.0504 20.9665 13.4171 20.5998L22.6171 11.3998C23.0171 10.9998 23.4838 10.7998 24.0171 10.7998C24.5504 10.7998 25.0171 10.9998 25.4171 11.3998L34.6171 20.5998C34.9838 20.9665 35.1671 21.4331 35.1671 21.9998C35.1671 22.5665 34.9838 23.0331 34.6171 23.3998C34.2504 23.7665 33.7838 23.9498 33.2171 23.9498C32.6504 23.9498 32.1838 23.7665 31.8171 23.3998L26.0171 17.5998V33.9998C26.0171 34.5665 25.8254 35.0415 25.4421 35.4248C25.0588 35.8081 24.5838 35.9998 24.0171 35.9998C23.4504 35.9998 22.9754 35.8081 22.5921 35.4248C22.2088 35.0415 22.0171 34.5665 22.0171 33.9998V17.5998Z" fill="white"/>
</g>
</svg>
