<svg width="49" height="48" viewBox="0 0 49 48" fill="none" xmlns="http://www.w3.org/2000/svg">
<g id="arrow_right_circle">
<path id="Vector" d="M23.8715 22L25.6715 20.2C26.0382 19.8333 26.2215 19.3667 26.2215 18.8C26.2215 18.2333 26.0382 17.7667 25.6715 17.4C25.3048 17.0333 24.8382 16.85 24.2715 16.85C23.7048 16.85 23.2382 17.0333 22.8715 17.4L17.6715 22.6C17.2715 23 17.0715 23.4667 17.0715 24C17.0715 24.5333 17.2715 25 17.6715 25.4L22.8715 30.6C23.2382 30.9667 23.7048 31.15 24.2715 31.15C24.8382 31.15 25.3048 30.9667 25.6715 30.6C26.0382 30.2333 26.2215 29.7667 26.2215 29.2C26.2215 28.6333 26.0382 28.1667 25.6715 27.8L23.8715 26L30.2715 26C30.8382 26 31.3132 25.8083 31.6965 25.425C32.0798 25.0417 32.2715 24.5667 32.2715 24C32.2715 23.4333 32.0798 22.9583 31.6965 22.575C31.3132 22.1917 30.8382 22 30.2715 22L23.8715 22ZM24.2715 4C27.0382 4 29.6382 4.525 32.0715 5.575C34.5048 6.625 36.6215 8.05 38.4215 9.85C40.2215 11.65 41.6465 13.7667 42.6965 16.2C43.7465 18.6333 44.2715 21.2333 44.2715 24C44.2715 26.7667 43.7465 29.3667 42.6965 31.8C41.6465 34.2333 40.2215 36.35 38.4215 38.15C36.6215 39.95 34.5048 41.375 32.0715 42.425C29.6382 43.475 27.0382 44 24.2715 44C21.5048 44 18.9048 43.475 16.4715 42.425C14.0382 41.375 11.9215 39.95 10.1215 38.15C8.32148 36.35 6.89648 34.2333 5.84649 31.8C4.79649 29.3667 4.27148 26.7667 4.27148 24C4.27148 21.2333 4.79649 18.6333 5.84649 16.2C6.89648 13.7667 8.32148 11.65 10.1215 9.85C11.9215 8.05 14.0382 6.625 16.4715 5.575C18.9048 4.525 21.5048 4 24.2715 4ZM24.2715 8C19.8048 8 16.0215 9.55 12.9215 12.65C9.82148 15.75 8.27148 19.5333 8.27148 24C8.27148 28.4667 9.82148 32.25 12.9215 35.35C16.0215 38.45 19.8048 40 24.2715 40C28.7382 40 32.5215 38.45 35.6215 35.35C38.7215 32.25 40.2715 28.4667 40.2715 24C40.2715 19.5333 38.7215 15.75 35.6215 12.65C32.5215 9.55 28.7382 8 24.2715 8Z" fill="#404040"/>
</g>
</svg>
