<svg width="33" height="32" viewBox="0 0 33 32" fill="none" xmlns="http://www.w3.org/2000/svg">
<g id="call">
<path id="Vector" d="M21.1667 5.33333C21.1667 6.93333 20.9 8.66667 20.3667 10.1333C20.3667 10.2667 20.3667 10.4 20.3667 10.5333C20.3667 10.9333 20.5 11.2 20.7667 11.4667L23.7 14.4C21.7 18.1333 18.6333 21.3333 14.9 23.2L11.9667 20.2667C11.5667 19.8667 11.0333 19.7333 10.6333 20C9.16667 20.4 7.43333 20.6667 5.83333 20.6667C5.16667 20.6667 4.5 21.3333 4.5 22V26.6667C4.5 27.3333 5.16667 28 5.83333 28C18.3667 28 28.5 17.8667 28.5 5.33333C28.5 4.66667 27.8333 4 27.1667 4H22.5C21.8333 4 21.1667 4.66667 21.1667 5.33333ZM7.52525 25.302C7.332 25.3209 7.16667 25.1675 7.16667 24.9734V23.93C7.16667 23.5903 7.42229 23.3061 7.75847 23.2573C8.62282 23.1319 9.47572 22.9483 10.2669 22.7569C10.4945 22.7018 10.7347 22.768 10.9002 22.9336L11.852 23.8853C12.0272 24.0605 11.9566 24.3584 11.7199 24.4317C10.3779 24.8471 8.95468 25.1622 7.52525 25.302ZM25.4734 6.66667C25.6675 6.66667 25.8209 6.832 25.802 7.02525C25.6622 8.45468 25.3471 9.87786 24.9317 11.2199C24.8584 11.4566 24.5605 11.5272 24.3853 11.352L23.4336 10.4002C23.268 10.2347 23.2019 9.99453 23.2567 9.76684C23.4414 8.99834 23.6113 8.17159 23.6742 7.33269C23.7018 6.96553 23.9985 6.66667 24.3667 6.66667H25.4734Z" fill="#EDEDED"/>
</g>
</svg>
