<svg width="33" height="32" viewBox="0 0 33 32" fill="none" xmlns="http://www.w3.org/2000/svg">
<g id="email">
<path id="Vector" d="M5.83268 26.6663C5.09935 26.6663 4.47179 26.4055 3.95002 25.8837C3.42735 25.361 3.16602 24.733 3.16602 23.9997V7.99967C3.16602 7.26634 3.42735 6.63879 3.95002 6.11701C4.47179 5.59434 5.09935 5.33301 5.83268 5.33301H27.166C27.8993 5.33301 28.5273 5.59434 29.05 6.11701C29.5718 6.63879 29.8327 7.26634 29.8327 7.99967V23.9997C29.8327 24.733 29.5718 25.361 29.05 25.8837C28.5273 26.4055 27.8993 26.6663 27.166 26.6663H5.83268ZM27.166 10.6663L17.1993 16.8997C17.0882 16.9663 16.9713 17.0161 16.8487 17.049C16.7269 17.0828 16.6105 17.0997 16.4993 17.0997C16.3882 17.0997 16.2718 17.0828 16.15 17.049C16.0273 17.0161 15.9105 16.9663 15.7993 16.8997L5.83268 10.6663V23.333C5.83268 23.7012 6.13116 23.9997 6.49935 23.9997H26.4993C26.8675 23.9997 27.166 23.7012 27.166 23.333V10.6663ZM16.4993 14.6663L27.166 7.99967H5.83268L16.4993 14.6663ZM5.83268 10.9997V9.03301V9.06634V9.04901V10.9997Z" fill="#EDEDED"/>
</g>
</svg>
