<svg width="25" height="24" viewBox="0 0 25 24" fill="none" xmlns="http://www.w3.org/2000/svg">
<g id="email">
<path id="Vector" d="M4.01709 20C3.46709 20 2.99642 19.8043 2.60509 19.413C2.21309 19.021 2.01709 18.55 2.01709 18V6C2.01709 5.45 2.21309 4.97933 2.60509 4.588C2.99642 4.196 3.46709 4 4.01709 4H20.0171C20.5671 4 21.0381 4.196 21.4301 4.588C21.8214 4.97933 22.0171 5.45 22.0171 6V18C22.0171 18.55 21.8214 19.021 21.4301 19.413C21.0381 19.8043 20.5671 20 20.0171 20H4.01709ZM20.0171 8L12.5421 12.675C12.4588 12.725 12.3711 12.7623 12.2791 12.787C12.1878 12.8123 12.1004 12.825 12.0171 12.825C11.9338 12.825 11.8464 12.8123 11.7551 12.787C11.6631 12.7623 11.5754 12.725 11.4921 12.675L4.01709 8V17.5C4.01709 17.7761 4.24095 18 4.51709 18H19.5171C19.7932 18 20.0171 17.7761 20.0171 17.5V8ZM12.0171 11L20.0171 6H4.01709L12.0171 11ZM4.01709 8.25V6.775V6.8V6.787V8.25Z" fill="#F59115"/>
</g>
</svg>
