<svg width="33" height="32" viewBox="0 0 33 32" fill="none" xmlns="http://www.w3.org/2000/svg">
<g id="location">
<path id="Vector" d="M16.5007 16.0003C17.234 16.0003 17.862 15.739 18.3847 15.2163C18.9064 14.6945 19.1673 14.067 19.1673 13.3337C19.1673 12.6003 18.9064 11.9723 18.3847 11.4497C17.862 10.9279 17.234 10.667 16.5007 10.667C15.7673 10.667 15.1398 10.9279 14.618 11.4497C14.0953 11.9723 13.834 12.6003 13.834 13.3337C13.834 14.067 14.0953 14.6945 14.618 15.2163C15.1398 15.739 15.7673 16.0003 16.5007 16.0003ZM16.5007 25.8003C19.2118 23.3114 21.2229 21.0501 22.534 19.0163C23.8451 16.9834 24.5007 15.1781 24.5007 13.6003C24.5007 11.1781 23.7282 9.19455 22.1833 7.64966C20.6393 6.10566 18.7451 5.33366 16.5007 5.33366C14.2562 5.33366 12.3615 6.10566 10.8167 7.64966C9.27265 9.19455 8.50065 11.1781 8.50065 13.6003C8.50065 15.1781 9.15621 16.9834 10.4673 19.0163C11.7784 21.0501 13.7895 23.3114 16.5007 25.8003ZM16.5007 28.8337C16.3229 28.8337 16.1451 28.8003 15.9673 28.7337C15.7895 28.667 15.634 28.5781 15.5007 28.467C12.2562 25.6003 9.83398 22.9394 8.23398 20.4843C6.63398 18.0283 5.83398 15.7337 5.83398 13.6003C5.83398 10.267 6.90643 7.61144 9.05132 5.63366C11.1953 3.65588 13.6784 2.66699 16.5007 2.66699C19.3229 2.66699 21.806 3.65588 23.95 5.63366C26.0949 7.61144 27.1673 10.267 27.1673 13.6003C27.1673 15.7337 26.3673 18.0283 24.7673 20.4843C23.1673 22.9394 20.7451 25.6003 17.5007 28.467C17.3673 28.5781 17.2118 28.667 17.034 28.7337C16.8562 28.8003 16.6784 28.8337 16.5007 28.8337Z" fill="#EDEDED"/>
</g>
</svg>
