<svg width="41" height="40" viewBox="0 0 41 40" fill="none" xmlns="http://www.w3.org/2000/svg">
<g id="play_circle">
<path id="Vector" d="M17.7671 26.2502L25.8921 21.0418C26.281 20.7918 26.4754 20.4446 26.4754 20.0002C26.4754 19.5557 26.281 19.2085 25.8921 18.9585L17.7671 13.7502C17.3504 13.4724 16.9268 13.4516 16.4963 13.6877C16.0657 13.9238 15.8504 14.2918 15.8504 14.7918V25.2085C15.8504 25.7085 16.0657 26.0766 16.4963 26.3127C16.9268 26.5488 17.3504 26.5279 17.7671 26.2502ZM20.0171 36.6668C17.7115 36.6668 15.5449 36.2293 13.5171 35.3543C11.4893 34.4793 9.72542 33.2918 8.22542 31.7918C6.72542 30.2918 5.53792 28.5279 4.66292 26.5002C3.78792 24.4724 3.35042 22.3057 3.35042 20.0002C3.35042 17.6946 3.78792 15.5279 4.66292 13.5002C5.53792 11.4724 6.72542 9.7085 8.22542 8.2085C9.72542 6.7085 11.4893 5.521 13.5171 4.646C15.5449 3.771 17.7115 3.3335 20.0171 3.3335C22.3226 3.3335 24.4893 3.771 26.5171 4.646C28.5449 5.521 30.3088 6.7085 31.8088 8.2085C33.3088 9.7085 34.4963 11.4724 35.3713 13.5002C36.2463 15.5279 36.6838 17.6946 36.6838 20.0002C36.6838 22.3057 36.2463 24.4724 35.3713 26.5002C34.4963 28.5279 33.3088 30.2918 31.8088 31.7918C30.3088 33.2918 28.5449 34.4793 26.5171 35.3543C24.4893 36.2293 22.3226 36.6668 20.0171 36.6668ZM20.0171 33.3335C23.7393 33.3335 26.8921 32.0418 29.4754 29.4585C32.0588 26.8752 33.3504 23.7224 33.3504 20.0002C33.3504 16.2779 32.0588 13.1252 29.4754 10.5418C26.8921 7.9585 23.7393 6.66683 20.0171 6.66683C16.2949 6.66683 13.1421 7.9585 10.5588 10.5418C7.97542 13.1252 6.68376 16.2779 6.68376 20.0002C6.68376 23.7224 7.97542 26.8752 10.5588 29.4585C13.1421 32.0418 16.2949 33.3335 20.0171 33.3335Z" fill="#606060"/>
</g>
</svg>
