<svg width="25" height="24" viewBox="0 0 25 24" fill="none" xmlns="http://www.w3.org/2000/svg">
<g id="progress_clock">
<path id="Vector" d="M13.0171 2.03027V4.05027C17.4071 4.59027 20.5171 8.58027 19.9771 12.9703C19.5171 16.6103 16.6571 19.5003 13.0171 19.9303V21.9303C18.5171 21.3803 22.5171 16.5003 21.9671 11.0003C21.5171 6.25027 17.7471 2.50027 13.0171 2.03027ZM11.0171 2.06027C9.06708 2.25027 7.20708 3.00027 5.68708 4.26027L7.11708 5.74027C8.23708 4.84027 9.58708 4.26027 11.0171 4.06027V2.06027ZM4.27708 5.67027C3.01708 7.19027 2.26708 9.04027 2.06708 11.0003H4.06708C4.25708 9.58027 4.81708 8.23027 5.70708 7.10027L4.27708 5.67027ZM2.07708 13.0003C2.27708 14.9603 3.04708 16.8103 4.28708 18.3303L5.70708 16.9003C4.82708 15.7703 4.25708 14.4203 4.07708 13.0003H2.07708ZM7.11708 18.3703L5.68708 19.7403C7.19708 21.0003 9.05708 21.7903 11.0171 22.0003V20.0003C9.59708 19.8203 8.24708 19.2503 7.11708 18.3703ZM11.7671 7.00027C12.1813 7.00027 12.5171 7.33606 12.5171 7.75027V12.2503L16.3917 14.5492C16.7358 14.7534 16.8468 15.1995 16.6385 15.5412C16.4329 15.8783 15.9939 15.9864 15.6553 15.7832L11.5026 13.2916C11.2014 13.1109 11.0171 12.7853 11.0171 12.4341V7.75027C11.0171 7.33606 11.3529 7.00027 11.7671 7.00027Z" fill="#F59115"/>
</g>
</svg>
