<svg width="33" height="32" viewBox="0 0 33 32" fill="none" xmlns="http://www.w3.org/2000/svg">
<g id="smartphone_iphone">
<path id="Vector" d="M10.4438 29.3337C9.77711 29.3337 9.2066 29.0965 8.73226 28.6221C8.25711 28.147 8.01953 27.5761 8.01953 26.9094V5.09123C8.01953 4.42457 8.25711 3.85366 8.73226 3.37851C9.2066 2.90416 9.77711 2.66699 10.4438 2.66699H22.565C23.2317 2.66699 23.8026 2.90416 24.2777 3.37851C24.7521 3.85366 24.9892 4.42457 24.9892 5.09123V26.9094C24.9892 27.5761 24.7521 28.147 24.2777 28.6221C23.8026 29.0965 23.2317 29.3337 22.565 29.3337H10.4438ZM10.4438 23.2731V26.2428C10.4438 26.6109 10.7423 26.9094 11.1104 26.9094H21.8983C22.2665 26.9094 22.565 26.6109 22.565 26.2428V23.2731H10.4438ZM16.5044 26.3034C16.8478 26.3034 17.1359 26.187 17.3686 25.9543C17.6005 25.7223 17.7165 25.4347 17.7165 25.0912C17.7165 24.7478 17.6005 24.4601 17.3686 24.2282C17.1359 23.9955 16.8478 23.8791 16.5044 23.8791C16.1609 23.8791 15.8733 23.9955 15.6413 24.2282C15.4086 24.4601 15.2923 24.7478 15.2923 25.0912C15.2923 25.4347 15.4086 25.7223 15.6413 25.9543C15.8733 26.187 16.1609 26.3034 16.5044 26.3034ZM10.4438 20.8488H22.565V8.7276H10.4438V20.8488ZM10.4438 6.30336H22.565V5.7579C22.565 5.38971 22.2665 5.09123 21.8983 5.09123H11.1104C10.7423 5.09123 10.4438 5.38971 10.4438 5.7579V6.30336Z" fill="#EDEDED"/>
</g>
</svg>
