<svg width="25" height="24" viewBox="0 0 25 24" fill="none" xmlns="http://www.w3.org/2000/svg">
<g id="smartphone">
<path id="Vector" d="M7.47529 22C6.97529 22 6.54741 21.8221 6.19165 21.4664C5.83529 21.11 5.6571 20.6818 5.6571 20.1818V3.81818C5.6571 3.31818 5.83529 2.89 6.19165 2.53364C6.54741 2.17788 6.97529 2 7.47529 2H16.5662C17.0662 2 17.4944 2.17788 17.8507 2.53364C18.2065 2.89 18.3844 3.31818 18.3844 3.81818V20.1818C18.3844 20.6818 18.2065 21.11 17.8507 21.4664C17.4944 21.8221 17.0662 22 16.5662 22H7.47529ZM7.47529 19.2727V19.7273C7.47529 19.9783 7.67879 20.1818 7.92983 20.1818H16.1116C16.3627 20.1818 16.5662 19.9783 16.5662 19.7273V19.2727H7.47529ZM7.47529 17.4545H16.5662V6.54545H7.47529V17.4545ZM7.47529 4.72727H16.5662V4.27273C16.5662 4.02169 16.3627 3.81818 16.1116 3.81818H7.92983C7.67879 3.81818 7.47529 4.02169 7.47529 4.27273V4.72727Z" fill="#F59115"/>
</g>
</svg>
